<svg width="60" height="60" viewBox="0 0 60 60" fill="none" xmlns="http://www.w3.org/2000/svg">
<path d="M56.1833 28.8167L31.1833 3.81666C30.871 3.50624 30.4486 3.332 30.0083 3.332C29.568 3.332 29.1456 3.50624 28.8333 3.81666L3.83332 28.8167C3.56027 29.1355 3.4176 29.5456 3.4338 29.9651C3.45 30.3845 3.62389 30.7824 3.92071 31.0793C4.21754 31.3761 4.61544 31.55 5.0349 31.5662C5.45436 31.5824 5.86448 31.4397 6.18332 31.1667L30 7.34999L53.8167 31.1833C54.1355 31.4564 54.5456 31.599 54.9651 31.5828C55.3845 31.5666 55.7824 31.3928 56.0793 31.0959C56.3761 30.7991 56.55 30.4012 56.5662 29.9817C56.5824 29.5623 56.4397 29.1522 56.1667 28.8333L56.1833 28.8167Z" fill="#FF8A00"/>
<path d="M46.6667 53.3333H38.3333V36.6667H21.6667V53.3333H13.3333V30L10 33.3333V53.3333C10 54.2174 10.3512 55.0652 10.9763 55.6904C11.6014 56.3155 12.4493 56.6667 13.3333 56.6667H25V40H35V56.6667H46.6667C47.5507 56.6667 48.3986 56.3155 49.0237 55.6904C49.6488 55.0652 50 54.2174 50 53.3333V32.9333L46.6667 29.6V53.3333Z" fill="#FF8A00"/>
</svg>
