<svg width="50" height="50" viewBox="0 0 50 50" fill="none" xmlns="http://www.w3.org/2000/svg">
<path d="M25 9.33331C23.426 9.33331 21.8874 9.80006 20.5786 10.6745C19.2699 11.549 18.2498 12.7919 17.6475 14.2461C17.0451 15.7003 16.8875 17.3005 17.1946 18.8442C17.5017 20.388 18.2596 21.806 19.3726 22.919C20.4856 24.032 21.9037 24.79 23.4474 25.0971C24.9912 25.4041 26.5914 25.2465 28.0455 24.6442C29.4997 24.0418 30.7427 23.0218 31.6171 21.7131C32.4916 20.4043 32.9584 18.8657 32.9584 17.2916C32.9584 15.181 32.1199 13.1567 30.6274 11.6643C29.1349 10.1718 27.1107 9.33331 25 9.33331ZM25 22.4722C23.9754 22.4722 22.9738 22.1684 22.1219 21.5991C21.2699 21.0299 20.6059 20.2208 20.2138 19.2742C19.8217 18.3275 19.7191 17.2859 19.919 16.281C20.1189 15.276 20.6123 14.353 21.3368 13.6284C22.0613 12.9039 22.9844 12.4105 23.9893 12.2106C24.9943 12.0107 26.0359 12.1133 26.9825 12.5054C27.9292 12.8975 28.7383 13.5615 29.3075 14.4135C29.8767 15.2654 30.1806 16.267 30.1806 17.2916C30.1769 18.6632 29.6295 19.9773 28.6583 20.9459C27.6872 21.9144 26.3716 22.4583 25 22.4583V22.4722Z" fill="#61A7A3"/>
<path d="M25 2.77777C20.6739 2.78138 16.525 4.49678 13.4595 7.54929C10.394 10.6018 8.66093 14.7434 8.63892 19.0694C8.63892 25.5555 12.2778 30.9861 14.9445 34.9444L15.4306 35.6667C18.0837 39.512 20.93 43.2204 23.9584 46.7778L25.0139 48.0139L26.0695 46.7778C29.0975 43.2201 31.9437 39.5117 34.5973 35.6667L35.0834 34.9305C37.7361 30.9722 41.375 25.5555 41.375 19.0694C41.353 14.741 39.6181 10.5973 36.5495 7.5444C33.481 4.49149 29.3285 2.77771 25 2.77777ZM32.7639 33.3333L32.2639 34.0694C29.875 37.6528 26.7084 41.6667 25 43.6528C23.3611 41.6667 20.125 37.6528 17.7361 34.0694L17.25 33.3333C14.7917 29.6667 11.4167 24.6528 11.4167 19.0139C11.4167 17.2301 11.768 15.4638 12.4507 13.8158C13.1333 12.1678 14.1338 10.6703 15.3952 9.40901C16.6565 8.14769 18.1539 7.14714 19.8019 6.46452C21.4499 5.78189 23.2162 5.43055 25 5.43055C26.7838 5.43055 28.5501 5.78189 30.1981 6.46452C31.8462 7.14714 33.3436 8.14769 34.6049 9.40901C35.8662 10.6703 36.8668 12.1678 37.5494 13.8158C38.232 15.4638 38.5834 17.2301 38.5834 19.0139C38.5834 24.7083 35.2223 29.7222 32.7639 33.3333Z" fill="#61A7A3"/>
</svg>
