<svg width="46" height="60" viewBox="0 0 46 60" fill="none" xmlns="http://www.w3.org/2000/svg">
<g clip-path="url(#clip0_51_77)">
<path d="M0.947754 11.25V15H27.1348V43.125H18.6502C18.0355 39.9019 15.9047 37.5 13.3521 37.5C10.7996 37.5 8.66879 39.9019 8.05409 43.125H6.46081V33.75H3.70428V46.875H8.05409C8.66879 50.0981 10.7996 52.5 13.3521 52.5C15.9047 52.5 18.0355 50.0981 18.6502 46.875H30.1063C30.721 50.0981 32.8518 52.5 35.4044 52.5C37.9569 52.5 40.0877 50.0981 40.7024 46.875H45.0522V31.5825L44.9654 31.2881L42.2089 20.0381L41.9098 18.75H29.8913V11.25H0.947754ZM2.32602 18.75V22.5H14.7304V18.75H2.32602ZM29.8913 22.5H39.9265L42.2957 32.1094V43.125H40.7024C40.0877 39.9019 37.9569 37.5 35.4044 37.5C32.8518 37.5 30.721 39.9019 30.1063 43.125H29.8913V22.5ZM3.70428 26.25V30H11.9739V26.25H3.70428ZM13.3521 41.25C14.8917 41.25 16.1087 42.9056 16.1087 45C16.1087 47.0944 14.8917 48.75 13.3521 48.75C11.8126 48.75 10.5956 47.0944 10.5956 45C10.5956 42.9056 11.8126 41.25 13.3521 41.25ZM35.4044 41.25C36.9439 41.25 38.1609 42.9056 38.1609 45C38.1609 47.0944 36.9439 48.75 35.4044 48.75C33.8649 48.75 32.6478 47.0944 32.6478 45C32.6478 42.9056 33.8649 41.25 35.4044 41.25Z" fill="#FF8A00"/>
</g>
<defs>
<clipPath id="clip0_51_77">
<rect width="44.1045" height="60" fill="white" transform="translate(0.947754)"/>
</clipPath>
</defs>
</svg>
