<svg width="20" height="24" viewBox="0 0 20 24" fill="none" xmlns="http://www.w3.org/2000/svg">
<path d="M15.75 4.275C15.75 4.275 16.3875 4.9 15.75 4.275C14.8955 3.29953 14.4247 2.04679 14.425 0.75H10.5625V16.25C10.5327 17.0888 10.1786 17.8833 9.57472 18.4662C8.97084 19.0491 8.16432 19.3749 7.32501 19.375C5.55001 19.375 4.07501 17.925 4.07501 16.125C4.07501 13.975 6.15001 12.3625 8.28751 13.025V9.075C3.97501 8.5 0.200012 11.85 0.200012 16.125C0.200012 20.2875 3.65001 23.25 7.31251 23.25C11.2375 23.25 14.425 20.0625 14.425 16.125V8.2625C15.9913 9.38731 17.8717 9.99081 19.8 9.9875V6.125C19.8 6.125 17.45 6.2375 15.75 4.275Z" fill="white"/>
</svg>
