<svg width="60" height="60" viewBox="0 0 60 60" fill="none" xmlns="http://www.w3.org/2000/svg">
<path d="M29.8275 5.14501C30.1371 4.75762 30.5205 4.43547 30.9554 4.19723C31.3903 3.95899 31.8682 3.80938 32.3613 3.75707C32.8545 3.70476 33.3531 3.75077 33.8284 3.89246C34.3036 4.03415 34.746 4.26869 35.13 4.58251L47.3625 14.5725C48.0352 15.1218 48.4964 15.8875 48.6674 16.739C48.8384 17.5905 48.7085 18.4749 48.3 19.2413C47.2305 18.9144 46.1183 18.7488 45 18.75H43.875L44.9925 17.475L38.55 12.2138L33.2362 18.7538H28.4025L35.6438 9.84376L32.7562 7.48501L23.7638 18.75H18.9638L29.8275 5.14501ZM39.375 37.5C38.8777 37.5 38.4008 37.6976 38.0492 38.0492C37.6975 38.4008 37.5 38.8777 37.5 39.375C37.5 39.8723 37.6975 40.3492 38.0492 40.7008C38.4008 41.0525 38.8777 41.25 39.375 41.25H43.125C43.6223 41.25 44.0992 41.0525 44.4508 40.7008C44.8025 40.3492 45 39.8723 45 39.375C45 38.8777 44.8025 38.4008 44.4508 38.0492C44.0992 37.6976 43.6223 37.5 43.125 37.5H39.375ZM11.25 20.625C11.25 20.1277 11.4475 19.6508 11.7992 19.2992C12.1508 18.9476 12.6277 18.75 13.125 18.75H15.2175L18.1988 15H13.125C11.6332 15 10.2024 15.5926 9.14752 16.6475C8.09263 17.7024 7.5 19.1332 7.5 20.625V43.125C7.5 45.6114 8.48772 47.996 10.2459 49.7541C12.004 51.5123 14.3886 52.5 16.875 52.5H45C46.9891 52.5 48.8968 51.7098 50.3033 50.3033C51.7098 48.8968 52.5 46.9891 52.5 45V30C52.5 28.0109 51.7098 26.1032 50.3033 24.6967C48.8968 23.2902 46.9891 22.5 45 22.5H13.125C12.6277 22.5 12.1508 22.3025 11.7992 21.9508C11.4475 21.5992 11.25 21.1223 11.25 20.625ZM11.25 43.125V25.9313C11.835 26.1375 12.4688 26.25 13.125 26.25H45C45.9946 26.25 46.9484 26.6451 47.6516 27.3484C48.3549 28.0516 48.75 29.0055 48.75 30V45C48.75 45.9946 48.3549 46.9484 47.6516 47.6517C46.9484 48.3549 45.9946 48.75 45 48.75H16.875C15.3832 48.75 13.9524 48.1574 12.8975 47.1025C11.8426 46.0476 11.25 44.6169 11.25 43.125Z" fill="#FF8A00"/>
</svg>
